<svg class="icon" viewBox="0 0 1024 1024" version="1.1" xmlns="http://www.w3.org/2000/svg" p-id="446" height="128" width="128"><path d="M513.2 733.7c-104.2 0-189-84.8-189-189s84.8-189 189-189 189 84.8 189 189-84.7 189-189 189z m0-336c-81 0-147 66-147 147s66 147 147 147c81.1 0 147-66 147-147s-65.9-147-147-147zM814.7 344h-63c-11.6 0-21-9.5-21-21 0-11.6 9.4-21 21-21h63c11.5 0 21 9.4 21 21 0 11.5-9.5 21-21 21" p-id="447"></path><path d="M858 879.5H166c-60.7 0-116-59-116-123.8V310.3c0-58.6 49.9-102.8 116-102.8h102.7c14.4-39.3 46.4-63 86.8-63h313.1c40.4 0 72.4 23.7 86.8 63H858c66.1 0 116 44.2 116 102.8v445.5c0 64.7-55.3 123.7-116 123.7z m-692-630c-36.8 0-74 20.9-74 60.8v445.5c0 41.3 36.6 81.8 74 81.8h692c37.3 0 74-40.5 74-81.8V310.3c0-39.9-37.2-60.8-74-60.8H722.7L719 233c-6.6-30-24.5-46.5-50.5-46.5h-313c-26 0-43.9 16.5-50.5 46.5l-3.6 16.5H166z" p-id="448"></path></svg>